# xmcd
# 
# Track frame offsets:
#     150
#     18722
#     37848
#     53850
#     71211
#     90315
#     106476
#     122802
#     141382
#     160714
#     176511
#     194919
# 
# Disc length: 2855
# 
# Revision: 1
# Processed by: cddbd v1.5.2PL0 Copyright (c) Steve Scherf et al.
# Submitted via: BonkEnc v1.0.6
# 
DISCID=ab0b250c
DTITLE=Skansis - Take Your Chance
DYEAR=2007
DGENRE=Hard Rock
TTITLE0=Is That Enough
TTITLE1=Will You Be There
TTITLE2=All I Care
TTITLE3=Changed My Mind
TTITLE4=Justice
TTITLE5=Dangermind
TTITLE6=Take Your Chance
TTITLE7=Never Let You Go
TTITLE8=Return Today
TTITLE9=Where Nobody Cries
TTITLE10=Heaven Tonight
TTITLE11=Lay Your Hands On Me
EXTD=
EXTT0=
EXTT1=
EXTT2=
EXTT3=
EXTT4=
EXTT5=
EXTT6=
EXTT7=
EXTT8=
EXTT9=
EXTT10=
EXTT11=
PLAYORDER=
